<svg width="209" height="249" viewBox="0 0 209 249" fill="none" xmlns="http://www.w3.org/2000/svg">
<path d="M104.024 137.805C85.2584 137.799 67.7212 130.295 54.7045 116.61L53.1371 114.993L51.186 116.125C23.6142 132.054 5.51054 159.859 0.24494 194.56L0 195.839L0.849412 196.839C28.371 229.872 65.0074 248.022 104.025 248.029L104.024 137.805Z" fill="#8164F5"/>
<path d="M156.859 116.125L154.898 114.993L153.34 116.61C140.337 130.27 122.852 137.77 104.171 137.804L104.046 137.804H104.023V248.029L104.046 248.029H104.067C143.037 248.023 179.678 229.872 207.186 196.838L208.052 195.838L207.805 194.56C202.525 159.858 184.419 132.054 156.859 116.125Z" fill="#5B32FF"/>
<path d="M104.025 123.873L104.186 123.87C138.232 123.769 165.937 96.0079 165.937 61.9412C165.937 27.9204 138.332 0.169423 104.303 0.00403053C104.21 0.00369546 104.118 0.000671387 104.024 0.000671387V123.873H104.025Z" fill="#5B32FF"/>
<path d="M103.999 123.873L104.025 123.872V0.000328988L103.999 0C69.8673 0 42.1123 27.8184 42.1123 61.9409C42.1123 96.0701 69.8674 123.873 103.999 123.873V123.873Z" fill="#8164F5"/>
</svg>
